<?xml version="1.0" encoding="iso-8859-1"?>
<!-- Generator: Adobe Illustrator 19.1.0, SVG Export Plug-In . SVG Version: 6.00 Build 0)  -->
<svg version="1.1" id="Capa_1" xmlns="http://www.w3.org/2000/svg" xmlns:xlink="http://www.w3.org/1999/xlink" x="0px" y="0px"
	 viewBox="0 0 297 297" style="enable-background:new 0 0 297 297;" xml:space="preserve">
<g>
	<path style="fill:none;" d="M49.667,219.396c-2,1.326-5,2.34-8,3V246.5h8V219.396z"/>
	<path style="fill:none;" d="M247.667,219.396V246.5h7v-24.35C252.667,221.494,250.667,220.564,247.667,219.396z"/>
	<path style="fill:#A9BD34;" d="M34.224,207.281c6.855,0,13.443-3.996,15.443-9.771V182.27c-2-5.775-8.588-9.771-15.443-9.771
		c-9.589,0-17.391,7.802-17.391,17.392C16.833,199.48,24.635,207.281,34.224,207.281z"/>
	<path style="fill:#A9BD34;" d="M247.667,197.51c3,5.775,8.921,9.771,15.775,9.771c9.59,0,17.475-7.802,17.475-17.391
		c0-9.59-7.927-17.392-17.516-17.392c-6.854,0-12.733,3.996-15.733,9.771V197.51z"/>
	<rect x="220.667" y="41.5" style="fill:#FFB929;" width="11" height="205"/>
	<rect x="65.667" y="41.5" style="fill:#FFB929;" width="10" height="205"/>
	<path style="fill:#FFFFFF;" d="M91.667,246.5h113v-230h-113V246.5z M123.667,207.5c0,4.418-3.582,8-8,8s-8-3.582-8-8v-17
		c0-4.418,3.582-8,8-8s8,3.582,8,8V207.5z M123.667,157.5c0,4.418-3.582,8-8,8s-8-3.582-8-8v-17c0-4.418,3.582-8,8-8s8,3.582,8,8
		V157.5z M123.667,107.5c0,4.418-3.582,8-8,8s-8-3.582-8-8v-17c0-4.418,3.582-8,8-8s8,3.582,8,8V107.5z M123.667,58.5
		c0,4.418-3.582,8-8,8s-8-3.582-8-8v-17c0-4.418,3.582-8,8-8s8,3.582,8,8V58.5z M156.667,207.5c0,4.418-3.582,8-8,8
		c-4.418,0-8-3.582-8-8v-17c0-4.418,3.582-8,8-8c4.418,0,8,3.582,8,8V207.5z M156.667,157.5c0,4.418-3.582,8-8,8
		c-4.418,0-8-3.582-8-8v-17c0-4.418,3.582-8,8-8c4.418,0,8,3.582,8,8V157.5z M156.667,107.5c0,4.418-3.582,8-8,8
		c-4.418,0-8-3.582-8-8v-17c0-4.418,3.582-8,8-8c4.418,0,8,3.582,8,8V107.5z M156.667,58.5c0,4.418-3.582,8-8,8
		c-4.418,0-8-3.582-8-8v-17c0-4.418,3.582-8,8-8c4.418,0,8,3.582,8,8V58.5z M189.667,207.5c0,4.418-3.582,8-8,8
		c-4.418,0-8-3.582-8-8v-17c0-4.418,3.582-8,8-8c4.418,0,8,3.582,8,8V207.5z M189.667,157.5c0,4.418-3.582,8-8,8
		c-4.418,0-8-3.582-8-8v-17c0-4.418,3.582-8,8-8c4.418,0,8,3.582,8,8V157.5z M189.667,107.5c0,4.418-3.582,8-8,8
		c-4.418,0-8-3.582-8-8v-17c0-4.418,3.582-8,8-8c4.418,0,8,3.582,8,8V107.5z M189.667,41.5v17c0,4.418-3.582,8-8,8
		c-4.418,0-8-3.582-8-8v-17c0-4.418,3.582-8,8-8C186.085,33.5,189.667,37.082,189.667,41.5z"/>
	<path style="fill:#A9BD34;" d="M272,262.5H25c-4.963,0-9,4.037-9,9s4.037,9,9,9h247c4.963,0,9-4.037,9-9S276.963,262.5,272,262.5z"
		/>
	<path d="M272,246.5h-1.333v-24.054c15-3.374,26.167-16.685,26.167-32.556c0-18.412-15.063-33.392-33.475-33.392
		c-5.636,0-10.692,1.409-15.692,3.885V33.5c0-4.418-3.249-8-7.667-8h-19.333v-17c0-4.418-3.249-8-7.667-8H84
		c-4.418,0-8.333,3.582-8.333,8v17H58c-4.418,0-8.333,3.582-8.333,8v126.885c-4-2.477-9.806-3.886-15.443-3.886
		c-18.412,0-33.474,14.98-33.474,33.392c0,15.516,10.917,28.591,24.917,32.322V246.5H25c-13.785,0-25,11.215-25,25s11.215,25,25,25
		h247c13.785,0,25-11.215,25-25S285.785,246.5,272,246.5z M272,280.5H25c-4.963,0-9-4.037-9-9s4.037-9,9-9h247c4.963,0,9,4.037,9,9
		S276.963,280.5,272,280.5z M34.224,172.499c6.855,0,13.443,3.996,15.443,9.771v15.239c-2,5.775-8.588,9.771-15.443,9.771
		c-9.589,0-17.391-7.802-17.391-17.391C16.833,180.301,24.635,172.499,34.224,172.499z M204.667,16.5v230h-113v-230H204.667z
		 M263.442,172.499c9.59,0,17.475,7.802,17.475,17.392c0,9.589-7.927,17.391-17.516,17.391c-6.854,0-12.733-3.996-15.733-9.771
		V182.27C250.667,176.495,256.588,172.499,263.442,172.499z M247.667,246.5v-27.104c3,1.168,5,2.098,7,2.754v24.35H247.667z
		 M231.667,246.5h-11v-205h11V246.5z M75.667,246.5h-10v-205h10V246.5z M41.667,222.396c3-0.66,6-1.674,8-3V246.5h-8V222.396z"/>
	<path d="M115.667,132.5c-4.418,0-8,3.582-8,8v17c0,4.418,3.582,8,8,8s8-3.582,8-8v-17C123.667,136.082,120.085,132.5,115.667,132.5
		z"/>
	<path d="M115.667,182.5c-4.418,0-8,3.582-8,8v17c0,4.418,3.582,8,8,8s8-3.582,8-8v-17C123.667,186.082,120.085,182.5,115.667,182.5
		z"/>
	<path d="M115.667,82.5c-4.418,0-8,3.582-8,8v17c0,4.418,3.582,8,8,8s8-3.582,8-8v-17C123.667,86.082,120.085,82.5,115.667,82.5z"/>
	<path d="M115.667,33.5c-4.418,0-8,3.582-8,8v17c0,4.418,3.582,8,8,8s8-3.582,8-8v-17C123.667,37.082,120.085,33.5,115.667,33.5z"/>
	<path d="M148.667,132.5c-4.418,0-8,3.582-8,8v17c0,4.418,3.582,8,8,8c4.418,0,8-3.582,8-8v-17
		C156.667,136.082,153.085,132.5,148.667,132.5z"/>
	<path d="M148.667,182.5c-4.418,0-8,3.582-8,8v17c0,4.418,3.582,8,8,8c4.418,0,8-3.582,8-8v-17
		C156.667,186.082,153.085,182.5,148.667,182.5z"/>
	<path d="M148.667,82.5c-4.418,0-8,3.582-8,8v17c0,4.418,3.582,8,8,8c4.418,0,8-3.582,8-8v-17
		C156.667,86.082,153.085,82.5,148.667,82.5z"/>
	<path d="M148.667,33.5c-4.418,0-8,3.582-8,8v17c0,4.418,3.582,8,8,8c4.418,0,8-3.582,8-8v-17
		C156.667,37.082,153.085,33.5,148.667,33.5z"/>
	<path d="M181.667,132.5c-4.418,0-8,3.582-8,8v17c0,4.418,3.582,8,8,8c4.418,0,8-3.582,8-8v-17
		C189.667,136.082,186.085,132.5,181.667,132.5z"/>
	<path d="M181.667,182.5c-4.418,0-8,3.582-8,8v17c0,4.418,3.582,8,8,8c4.418,0,8-3.582,8-8v-17
		C189.667,186.082,186.085,182.5,181.667,182.5z"/>
	<path d="M181.667,82.5c-4.418,0-8,3.582-8,8v17c0,4.418,3.582,8,8,8c4.418,0,8-3.582,8-8v-17
		C189.667,86.082,186.085,82.5,181.667,82.5z"/>
	<path d="M173.667,41.5v17c0,4.418,3.582,8,8,8c4.418,0,8-3.582,8-8v-17c0-4.418-3.582-8-8-8
		C177.249,33.5,173.667,37.082,173.667,41.5z"/>
</g>
<g>
</g>
<g>
</g>
<g>
</g>
<g>
</g>
<g>
</g>
<g>
</g>
<g>
</g>
<g>
</g>
<g>
</g>
<g>
</g>
<g>
</g>
<g>
</g>
<g>
</g>
<g>
</g>
<g>
</g>
</svg>
